<mxfile host="app.diagrams.net" agent="Mozilla/5.0 (Windows NT 10.0; Win64; x64) AppleWebKit/537.36 (KHTML, like Gecko) Chrome/137.0.0.0 Safari/537.36 Edg/137.0.0.0" version="27.1.4">
  <diagram name="Страница — 1" id="0AxxKKy72it5V6mxBsG3">
    <mxGraphModel dx="2243" dy="932" grid="0" gridSize="10" guides="1" tooltips="1" connect="1" arrows="1" fold="1" page="0" pageScale="1" pageWidth="827" pageHeight="1169" math="0" shadow="0">
      <root>
        <mxCell id="0" />
        <mxCell id="1" parent="0" />
        <mxCell id="ay8TrYF9AFH5agloY99Q-1" value="Лестница" style="swimlane;fontStyle=1;align=center;verticalAlign=top;childLayout=stackLayout;horizontal=1;startSize=26;horizontalStack=0;resizeParent=1;resizeParentMax=0;resizeLast=0;collapsible=1;marginBottom=0;whiteSpace=wrap;html=1;" parent="1" vertex="1">
          <mxGeometry x="-203" y="365" width="160" height="138" as="geometry" />
        </mxCell>
        <mxCell id="ay8TrYF9AFH5agloY99Q-2" value="+ id: string" style="text;strokeColor=none;fillColor=none;align=left;verticalAlign=top;spacingLeft=4;spacingRight=4;overflow=hidden;rotatable=0;points=[[0,0.5],[1,0.5]];portConstraint=eastwest;whiteSpace=wrap;html=1;" parent="ay8TrYF9AFH5agloY99Q-1" vertex="1">
          <mxGeometry y="26" width="160" height="26" as="geometry" />
        </mxCell>
        <mxCell id="ay8TrYF9AFH5agloY99Q-56" value="+ startCoord: string" style="text;strokeColor=none;fillColor=none;align=left;verticalAlign=top;spacingLeft=4;spacingRight=4;overflow=hidden;rotatable=0;points=[[0,0.5],[1,0.5]];portConstraint=eastwest;whiteSpace=wrap;html=1;" parent="ay8TrYF9AFH5agloY99Q-1" vertex="1">
          <mxGeometry y="52" width="160" height="26" as="geometry" />
        </mxCell>
        <mxCell id="ay8TrYF9AFH5agloY99Q-57" value="+ endCoord: string" style="text;strokeColor=none;fillColor=none;align=left;verticalAlign=top;spacingLeft=4;spacingRight=4;overflow=hidden;rotatable=0;points=[[0,0.5],[1,0.5]];portConstraint=eastwest;whiteSpace=wrap;html=1;" parent="ay8TrYF9AFH5agloY99Q-1" vertex="1">
          <mxGeometry y="78" width="160" height="26" as="geometry" />
        </mxCell>
        <mxCell id="ay8TrYF9AFH5agloY99Q-3" value="" style="line;strokeWidth=1;fillColor=none;align=left;verticalAlign=middle;spacingTop=-1;spacingLeft=3;spacingRight=3;rotatable=0;labelPosition=right;points=[];portConstraint=eastwest;strokeColor=inherit;" parent="ay8TrYF9AFH5agloY99Q-1" vertex="1">
          <mxGeometry y="104" width="160" height="8" as="geometry" />
        </mxCell>
        <mxCell id="ay8TrYF9AFH5agloY99Q-4" value="+" style="text;strokeColor=none;fillColor=none;align=left;verticalAlign=top;spacingLeft=4;spacingRight=4;overflow=hidden;rotatable=0;points=[[0,0.5],[1,0.5]];portConstraint=eastwest;whiteSpace=wrap;html=1;" parent="ay8TrYF9AFH5agloY99Q-1" vertex="1">
          <mxGeometry y="112" width="160" height="26" as="geometry" />
        </mxCell>
        <mxCell id="ay8TrYF9AFH5agloY99Q-5" value="Этаж" style="swimlane;fontStyle=1;align=center;verticalAlign=top;childLayout=stackLayout;horizontal=1;startSize=26;horizontalStack=0;resizeParent=1;resizeParentMax=0;resizeLast=0;collapsible=1;marginBottom=0;whiteSpace=wrap;html=1;" parent="1" vertex="1">
          <mxGeometry x="-203" y="525" width="160" height="130" as="geometry" />
        </mxCell>
        <mxCell id="ay8TrYF9AFH5agloY99Q-6" value="+ id: string" style="text;strokeColor=none;fillColor=none;align=left;verticalAlign=top;spacingLeft=4;spacingRight=4;overflow=hidden;rotatable=0;points=[[0,0.5],[1,0.5]];portConstraint=eastwest;whiteSpace=wrap;html=1;" parent="ay8TrYF9AFH5agloY99Q-5" vertex="1">
          <mxGeometry y="26" width="160" height="26" as="geometry" />
        </mxCell>
        <mxCell id="ay8TrYF9AFH5agloY99Q-58" value="+ number: int" style="text;strokeColor=none;fillColor=none;align=left;verticalAlign=top;spacingLeft=4;spacingRight=4;overflow=hidden;rotatable=0;points=[[0,0.5],[1,0.5]];portConstraint=eastwest;whiteSpace=wrap;html=1;" parent="ay8TrYF9AFH5agloY99Q-5" vertex="1">
          <mxGeometry y="52" width="160" height="26" as="geometry" />
        </mxCell>
        <mxCell id="ay8TrYF9AFH5agloY99Q-7" value="" style="line;strokeWidth=1;fillColor=none;align=left;verticalAlign=middle;spacingTop=-1;spacingLeft=3;spacingRight=3;rotatable=0;labelPosition=right;points=[];portConstraint=eastwest;strokeColor=inherit;" parent="ay8TrYF9AFH5agloY99Q-5" vertex="1">
          <mxGeometry y="78" width="160" height="8" as="geometry" />
        </mxCell>
        <mxCell id="ay8TrYF9AFH5agloY99Q-8" value="+ contains(Помещение): string" style="text;strokeColor=none;fillColor=none;align=left;verticalAlign=top;spacingLeft=4;spacingRight=4;overflow=hidden;rotatable=0;points=[[0,0.5],[1,0.5]];portConstraint=eastwest;whiteSpace=wrap;html=1;" parent="ay8TrYF9AFH5agloY99Q-5" vertex="1">
          <mxGeometry y="86" width="160" height="44" as="geometry" />
        </mxCell>
        <mxCell id="ay8TrYF9AFH5agloY99Q-9" value="Помещение" style="swimlane;fontStyle=1;align=center;verticalAlign=top;childLayout=stackLayout;horizontal=1;startSize=26;horizontalStack=0;resizeParent=1;resizeParentMax=0;resizeLast=0;collapsible=1;marginBottom=0;whiteSpace=wrap;html=1;" parent="1" vertex="1">
          <mxGeometry x="-203" y="689" width="160" height="112" as="geometry" />
        </mxCell>
        <mxCell id="ay8TrYF9AFH5agloY99Q-10" value="+ id: string" style="text;strokeColor=none;fillColor=none;align=left;verticalAlign=top;spacingLeft=4;spacingRight=4;overflow=hidden;rotatable=0;points=[[0,0.5],[1,0.5]];portConstraint=eastwest;whiteSpace=wrap;html=1;" parent="ay8TrYF9AFH5agloY99Q-9" vertex="1">
          <mxGeometry y="26" width="160" height="26" as="geometry" />
        </mxCell>
        <mxCell id="ay8TrYF9AFH5agloY99Q-59" value="+ area: float" style="text;strokeColor=none;fillColor=none;align=left;verticalAlign=top;spacingLeft=4;spacingRight=4;overflow=hidden;rotatable=0;points=[[0,0.5],[1,0.5]];portConstraint=eastwest;whiteSpace=wrap;html=1;" parent="ay8TrYF9AFH5agloY99Q-9" vertex="1">
          <mxGeometry y="52" width="160" height="26" as="geometry" />
        </mxCell>
        <mxCell id="ay8TrYF9AFH5agloY99Q-11" value="" style="line;strokeWidth=1;fillColor=none;align=left;verticalAlign=middle;spacingTop=-1;spacingLeft=3;spacingRight=3;rotatable=0;labelPosition=right;points=[];portConstraint=eastwest;strokeColor=inherit;" parent="ay8TrYF9AFH5agloY99Q-9" vertex="1">
          <mxGeometry y="78" width="160" height="8" as="geometry" />
        </mxCell>
        <mxCell id="ay8TrYF9AFH5agloY99Q-12" value="+ boundedBy(Стена): string" style="text;strokeColor=none;fillColor=none;align=left;verticalAlign=top;spacingLeft=4;spacingRight=4;overflow=hidden;rotatable=0;points=[[0,0.5],[1,0.5]];portConstraint=eastwest;whiteSpace=wrap;html=1;" parent="ay8TrYF9AFH5agloY99Q-9" vertex="1">
          <mxGeometry y="86" width="160" height="26" as="geometry" />
        </mxCell>
        <mxCell id="ay8TrYF9AFH5agloY99Q-13" value="Стена" style="swimlane;fontStyle=1;align=center;verticalAlign=top;childLayout=stackLayout;horizontal=1;startSize=26;horizontalStack=0;resizeParent=1;resizeParentMax=0;resizeLast=0;collapsible=1;marginBottom=0;whiteSpace=wrap;html=1;" parent="1" vertex="1">
          <mxGeometry x="207" y="365" width="160" height="138" as="geometry" />
        </mxCell>
        <mxCell id="ay8TrYF9AFH5agloY99Q-14" value="+ id: string" style="text;strokeColor=none;fillColor=none;align=left;verticalAlign=top;spacingLeft=4;spacingRight=4;overflow=hidden;rotatable=0;points=[[0,0.5],[1,0.5]];portConstraint=eastwest;whiteSpace=wrap;html=1;" parent="ay8TrYF9AFH5agloY99Q-13" vertex="1">
          <mxGeometry y="26" width="160" height="26" as="geometry" />
        </mxCell>
        <mxCell id="ay8TrYF9AFH5agloY99Q-60" value="+ length: float" style="text;strokeColor=none;fillColor=none;align=left;verticalAlign=top;spacingLeft=4;spacingRight=4;overflow=hidden;rotatable=0;points=[[0,0.5],[1,0.5]];portConstraint=eastwest;whiteSpace=wrap;html=1;" parent="ay8TrYF9AFH5agloY99Q-13" vertex="1">
          <mxGeometry y="52" width="160" height="26" as="geometry" />
        </mxCell>
        <mxCell id="ay8TrYF9AFH5agloY99Q-61" value="+ coord: string" style="text;strokeColor=none;fillColor=none;align=left;verticalAlign=top;spacingLeft=4;spacingRight=4;overflow=hidden;rotatable=0;points=[[0,0.5],[1,0.5]];portConstraint=eastwest;whiteSpace=wrap;html=1;" parent="ay8TrYF9AFH5agloY99Q-13" vertex="1">
          <mxGeometry y="78" width="160" height="26" as="geometry" />
        </mxCell>
        <mxCell id="ay8TrYF9AFH5agloY99Q-15" value="" style="line;strokeWidth=1;fillColor=none;align=left;verticalAlign=middle;spacingTop=-1;spacingLeft=3;spacingRight=3;rotatable=0;labelPosition=right;points=[];portConstraint=eastwest;strokeColor=inherit;" parent="ay8TrYF9AFH5agloY99Q-13" vertex="1">
          <mxGeometry y="104" width="160" height="8" as="geometry" />
        </mxCell>
        <mxCell id="ay8TrYF9AFH5agloY99Q-16" value="+ contains(Дверь): string" style="text;strokeColor=none;fillColor=none;align=left;verticalAlign=top;spacingLeft=4;spacingRight=4;overflow=hidden;rotatable=0;points=[[0,0.5],[1,0.5]];portConstraint=eastwest;whiteSpace=wrap;html=1;" parent="ay8TrYF9AFH5agloY99Q-13" vertex="1">
          <mxGeometry y="112" width="160" height="26" as="geometry" />
        </mxCell>
        <mxCell id="ay8TrYF9AFH5agloY99Q-17" value="Дверь" style="swimlane;fontStyle=1;align=center;verticalAlign=top;childLayout=stackLayout;horizontal=1;startSize=26;horizontalStack=0;resizeParent=1;resizeParentMax=0;resizeLast=0;collapsible=1;marginBottom=0;whiteSpace=wrap;html=1;" parent="1" vertex="1">
          <mxGeometry x="397" y="365" width="160" height="112" as="geometry" />
        </mxCell>
        <mxCell id="ay8TrYF9AFH5agloY99Q-18" value="+ id: string" style="text;strokeColor=none;fillColor=none;align=left;verticalAlign=top;spacingLeft=4;spacingRight=4;overflow=hidden;rotatable=0;points=[[0,0.5],[1,0.5]];portConstraint=eastwest;whiteSpace=wrap;html=1;" parent="ay8TrYF9AFH5agloY99Q-17" vertex="1">
          <mxGeometry y="26" width="160" height="26" as="geometry" />
        </mxCell>
        <mxCell id="ay8TrYF9AFH5agloY99Q-62" value="+ coord: string" style="text;strokeColor=none;fillColor=none;align=left;verticalAlign=top;spacingLeft=4;spacingRight=4;overflow=hidden;rotatable=0;points=[[0,0.5],[1,0.5]];portConstraint=eastwest;whiteSpace=wrap;html=1;" parent="ay8TrYF9AFH5agloY99Q-17" vertex="1">
          <mxGeometry y="52" width="160" height="26" as="geometry" />
        </mxCell>
        <mxCell id="ay8TrYF9AFH5agloY99Q-19" value="" style="line;strokeWidth=1;fillColor=none;align=left;verticalAlign=middle;spacingTop=-1;spacingLeft=3;spacingRight=3;rotatable=0;labelPosition=right;points=[];portConstraint=eastwest;strokeColor=inherit;" parent="ay8TrYF9AFH5agloY99Q-17" vertex="1">
          <mxGeometry y="78" width="160" height="8" as="geometry" />
        </mxCell>
        <mxCell id="ay8TrYF9AFH5agloY99Q-20" value="+&amp;nbsp;" style="text;strokeColor=none;fillColor=none;align=left;verticalAlign=top;spacingLeft=4;spacingRight=4;overflow=hidden;rotatable=0;points=[[0,0.5],[1,0.5]];portConstraint=eastwest;whiteSpace=wrap;html=1;" parent="ay8TrYF9AFH5agloY99Q-17" vertex="1">
          <mxGeometry y="86" width="160" height="26" as="geometry" />
        </mxCell>
        <mxCell id="ay8TrYF9AFH5agloY99Q-21" value="Пользователь" style="swimlane;fontStyle=1;align=center;verticalAlign=top;childLayout=stackLayout;horizontal=1;startSize=26;horizontalStack=0;resizeParent=1;resizeParentMax=0;resizeLast=0;collapsible=1;marginBottom=0;whiteSpace=wrap;html=1;" parent="1" vertex="1">
          <mxGeometry x="-423" y="365" width="160" height="138" as="geometry" />
        </mxCell>
        <mxCell id="ay8TrYF9AFH5agloY99Q-22" value="+ id: string" style="text;strokeColor=none;fillColor=none;align=left;verticalAlign=top;spacingLeft=4;spacingRight=4;overflow=hidden;rotatable=0;points=[[0,0.5],[1,0.5]];portConstraint=eastwest;whiteSpace=wrap;html=1;" parent="ay8TrYF9AFH5agloY99Q-21" vertex="1">
          <mxGeometry y="26" width="160" height="26" as="geometry" />
        </mxCell>
        <mxCell id="ay8TrYF9AFH5agloY99Q-49" value="+ location: string" style="text;strokeColor=none;fillColor=none;align=left;verticalAlign=top;spacingLeft=4;spacingRight=4;overflow=hidden;rotatable=0;points=[[0,0.5],[1,0.5]];portConstraint=eastwest;whiteSpace=wrap;html=1;" parent="ay8TrYF9AFH5agloY99Q-21" vertex="1">
          <mxGeometry y="52" width="160" height="26" as="geometry" />
        </mxCell>
        <mxCell id="ay8TrYF9AFH5agloY99Q-50" value="+ destination: string" style="text;strokeColor=none;fillColor=none;align=left;verticalAlign=top;spacingLeft=4;spacingRight=4;overflow=hidden;rotatable=0;points=[[0,0.5],[1,0.5]];portConstraint=eastwest;whiteSpace=wrap;html=1;" parent="ay8TrYF9AFH5agloY99Q-21" vertex="1">
          <mxGeometry y="78" width="160" height="26" as="geometry" />
        </mxCell>
        <mxCell id="ay8TrYF9AFH5agloY99Q-23" value="" style="line;strokeWidth=1;fillColor=none;align=left;verticalAlign=middle;spacingTop=-1;spacingLeft=3;spacingRight=3;rotatable=0;labelPosition=right;points=[];portConstraint=eastwest;strokeColor=inherit;" parent="ay8TrYF9AFH5agloY99Q-21" vertex="1">
          <mxGeometry y="104" width="160" height="8" as="geometry" />
        </mxCell>
        <mxCell id="ay8TrYF9AFH5agloY99Q-24" value="+" style="text;strokeColor=none;fillColor=none;align=left;verticalAlign=top;spacingLeft=4;spacingRight=4;overflow=hidden;rotatable=0;points=[[0,0.5],[1,0.5]];portConstraint=eastwest;whiteSpace=wrap;html=1;" parent="ay8TrYF9AFH5agloY99Q-21" vertex="1">
          <mxGeometry y="112" width="160" height="26" as="geometry" />
        </mxCell>
        <mxCell id="ay8TrYF9AFH5agloY99Q-25" value="Карта" style="swimlane;fontStyle=1;align=center;verticalAlign=top;childLayout=stackLayout;horizontal=1;startSize=26;horizontalStack=0;resizeParent=1;resizeParentMax=0;resizeLast=0;collapsible=1;marginBottom=0;whiteSpace=wrap;html=1;" parent="1" vertex="1">
          <mxGeometry x="-423" y="565" width="160" height="138" as="geometry" />
        </mxCell>
        <mxCell id="ay8TrYF9AFH5agloY99Q-26" value="+ id: string" style="text;strokeColor=none;fillColor=none;align=left;verticalAlign=top;spacingLeft=4;spacingRight=4;overflow=hidden;rotatable=0;points=[[0,0.5],[1,0.5]];portConstraint=eastwest;whiteSpace=wrap;html=1;" parent="ay8TrYF9AFH5agloY99Q-25" vertex="1">
          <mxGeometry y="26" width="160" height="26" as="geometry" />
        </mxCell>
        <mxCell id="ay8TrYF9AFH5agloY99Q-51" value="+ coordSystem: string" style="text;strokeColor=none;fillColor=none;align=left;verticalAlign=top;spacingLeft=4;spacingRight=4;overflow=hidden;rotatable=0;points=[[0,0.5],[1,0.5]];portConstraint=eastwest;whiteSpace=wrap;html=1;" parent="ay8TrYF9AFH5agloY99Q-25" vertex="1">
          <mxGeometry y="52" width="160" height="26" as="geometry" />
        </mxCell>
        <mxCell id="ay8TrYF9AFH5agloY99Q-52" value="+ scale: string" style="text;strokeColor=none;fillColor=none;align=left;verticalAlign=top;spacingLeft=4;spacingRight=4;overflow=hidden;rotatable=0;points=[[0,0.5],[1,0.5]];portConstraint=eastwest;whiteSpace=wrap;html=1;" parent="ay8TrYF9AFH5agloY99Q-25" vertex="1">
          <mxGeometry y="78" width="160" height="26" as="geometry" />
        </mxCell>
        <mxCell id="ay8TrYF9AFH5agloY99Q-27" value="" style="line;strokeWidth=1;fillColor=none;align=left;verticalAlign=middle;spacingTop=-1;spacingLeft=3;spacingRight=3;rotatable=0;labelPosition=right;points=[];portConstraint=eastwest;strokeColor=inherit;" parent="ay8TrYF9AFH5agloY99Q-25" vertex="1">
          <mxGeometry y="104" width="160" height="8" as="geometry" />
        </mxCell>
        <mxCell id="ay8TrYF9AFH5agloY99Q-28" value="+ has(Маршрут): string" style="text;strokeColor=none;fillColor=none;align=left;verticalAlign=top;spacingLeft=4;spacingRight=4;overflow=hidden;rotatable=0;points=[[0,0.5],[1,0.5]];portConstraint=eastwest;whiteSpace=wrap;html=1;" parent="ay8TrYF9AFH5agloY99Q-25" vertex="1">
          <mxGeometry y="112" width="160" height="26" as="geometry" />
        </mxCell>
        <mxCell id="ay8TrYF9AFH5agloY99Q-29" value="Маршрут" style="swimlane;fontStyle=1;align=center;verticalAlign=top;childLayout=stackLayout;horizontal=1;startSize=26;horizontalStack=0;resizeParent=1;resizeParentMax=0;resizeLast=0;collapsible=1;marginBottom=0;whiteSpace=wrap;html=1;" parent="1" vertex="1">
          <mxGeometry x="-423" y="785" width="160" height="164" as="geometry" />
        </mxCell>
        <mxCell id="ay8TrYF9AFH5agloY99Q-30" value="+ id: string" style="text;strokeColor=none;fillColor=none;align=left;verticalAlign=top;spacingLeft=4;spacingRight=4;overflow=hidden;rotatable=0;points=[[0,0.5],[1,0.5]];portConstraint=eastwest;whiteSpace=wrap;html=1;" parent="ay8TrYF9AFH5agloY99Q-29" vertex="1">
          <mxGeometry y="26" width="160" height="26" as="geometry" />
        </mxCell>
        <mxCell id="ay8TrYF9AFH5agloY99Q-53" value="+ start: string" style="text;strokeColor=none;fillColor=none;align=left;verticalAlign=top;spacingLeft=4;spacingRight=4;overflow=hidden;rotatable=0;points=[[0,0.5],[1,0.5]];portConstraint=eastwest;whiteSpace=wrap;html=1;" parent="ay8TrYF9AFH5agloY99Q-29" vertex="1">
          <mxGeometry y="52" width="160" height="26" as="geometry" />
        </mxCell>
        <mxCell id="ay8TrYF9AFH5agloY99Q-54" value="+ end: string" style="text;strokeColor=none;fillColor=none;align=left;verticalAlign=top;spacingLeft=4;spacingRight=4;overflow=hidden;rotatable=0;points=[[0,0.5],[1,0.5]];portConstraint=eastwest;whiteSpace=wrap;html=1;" parent="ay8TrYF9AFH5agloY99Q-29" vertex="1">
          <mxGeometry y="78" width="160" height="26" as="geometry" />
        </mxCell>
        <mxCell id="ay8TrYF9AFH5agloY99Q-55" value="+ length: string" style="text;strokeColor=none;fillColor=none;align=left;verticalAlign=top;spacingLeft=4;spacingRight=4;overflow=hidden;rotatable=0;points=[[0,0.5],[1,0.5]];portConstraint=eastwest;whiteSpace=wrap;html=1;" parent="ay8TrYF9AFH5agloY99Q-29" vertex="1">
          <mxGeometry y="104" width="160" height="26" as="geometry" />
        </mxCell>
        <mxCell id="ay8TrYF9AFH5agloY99Q-31" value="" style="line;strokeWidth=1;fillColor=none;align=left;verticalAlign=middle;spacingTop=-1;spacingLeft=3;spacingRight=3;rotatable=0;labelPosition=right;points=[];portConstraint=eastwest;strokeColor=inherit;" parent="ay8TrYF9AFH5agloY99Q-29" vertex="1">
          <mxGeometry y="130" width="160" height="8" as="geometry" />
        </mxCell>
        <mxCell id="ay8TrYF9AFH5agloY99Q-32" value="+ belongsTo(Карта): string" style="text;strokeColor=none;fillColor=none;align=left;verticalAlign=top;spacingLeft=4;spacingRight=4;overflow=hidden;rotatable=0;points=[[0,0.5],[1,0.5]];portConstraint=eastwest;whiteSpace=wrap;html=1;" parent="ay8TrYF9AFH5agloY99Q-29" vertex="1">
          <mxGeometry y="138" width="160" height="26" as="geometry" />
        </mxCell>
        <mxCell id="ay8TrYF9AFH5agloY99Q-33" value="Здание" style="swimlane;fontStyle=1;align=center;verticalAlign=top;childLayout=stackLayout;horizontal=1;startSize=26;horizontalStack=0;resizeParent=1;resizeParentMax=0;resizeLast=0;collapsible=1;marginBottom=0;whiteSpace=wrap;html=1;" parent="1" vertex="1">
          <mxGeometry x="-3" y="525" width="160" height="112" as="geometry" />
        </mxCell>
        <mxCell id="ay8TrYF9AFH5agloY99Q-34" value="+ id: string" style="text;strokeColor=none;fillColor=none;align=left;verticalAlign=top;spacingLeft=4;spacingRight=4;overflow=hidden;rotatable=0;points=[[0,0.5],[1,0.5]];portConstraint=eastwest;whiteSpace=wrap;html=1;" parent="ay8TrYF9AFH5agloY99Q-33" vertex="1">
          <mxGeometry y="26" width="160" height="26" as="geometry" />
        </mxCell>
        <mxCell id="ay8TrYF9AFH5agloY99Q-63" value="+ floors: int" style="text;strokeColor=none;fillColor=none;align=left;verticalAlign=top;spacingLeft=4;spacingRight=4;overflow=hidden;rotatable=0;points=[[0,0.5],[1,0.5]];portConstraint=eastwest;whiteSpace=wrap;html=1;" parent="ay8TrYF9AFH5agloY99Q-33" vertex="1">
          <mxGeometry y="52" width="160" height="26" as="geometry" />
        </mxCell>
        <mxCell id="ay8TrYF9AFH5agloY99Q-35" value="" style="line;strokeWidth=1;fillColor=none;align=left;verticalAlign=middle;spacingTop=-1;spacingLeft=3;spacingRight=3;rotatable=0;labelPosition=right;points=[];portConstraint=eastwest;strokeColor=inherit;" parent="ay8TrYF9AFH5agloY99Q-33" vertex="1">
          <mxGeometry y="78" width="160" height="8" as="geometry" />
        </mxCell>
        <mxCell id="ay8TrYF9AFH5agloY99Q-36" value="+ contains(Этаж): string" style="text;strokeColor=none;fillColor=none;align=left;verticalAlign=top;spacingLeft=4;spacingRight=4;overflow=hidden;rotatable=0;points=[[0,0.5],[1,0.5]];portConstraint=eastwest;whiteSpace=wrap;html=1;" parent="ay8TrYF9AFH5agloY99Q-33" vertex="1">
          <mxGeometry y="86" width="160" height="26" as="geometry" />
        </mxCell>
        <mxCell id="ay8TrYF9AFH5agloY99Q-37" value="Лифт" style="swimlane;fontStyle=1;align=center;verticalAlign=top;childLayout=stackLayout;horizontal=1;startSize=26;horizontalStack=0;resizeParent=1;resizeParentMax=0;resizeLast=0;collapsible=1;marginBottom=0;whiteSpace=wrap;html=1;" parent="1" vertex="1">
          <mxGeometry x="-3" y="365" width="160" height="112" as="geometry" />
        </mxCell>
        <mxCell id="ay8TrYF9AFH5agloY99Q-38" value="+ id: string" style="text;strokeColor=none;fillColor=none;align=left;verticalAlign=top;spacingLeft=4;spacingRight=4;overflow=hidden;rotatable=0;points=[[0,0.5],[1,0.5]];portConstraint=eastwest;whiteSpace=wrap;html=1;" parent="ay8TrYF9AFH5agloY99Q-37" vertex="1">
          <mxGeometry y="26" width="160" height="26" as="geometry" />
        </mxCell>
        <mxCell id="ay8TrYF9AFH5agloY99Q-64" value="+ List&amp;lt;Этажи&amp;gt;: Этажи" style="text;strokeColor=none;fillColor=none;align=left;verticalAlign=top;spacingLeft=4;spacingRight=4;overflow=hidden;rotatable=0;points=[[0,0.5],[1,0.5]];portConstraint=eastwest;whiteSpace=wrap;html=1;" parent="ay8TrYF9AFH5agloY99Q-37" vertex="1">
          <mxGeometry y="52" width="160" height="26" as="geometry" />
        </mxCell>
        <mxCell id="ay8TrYF9AFH5agloY99Q-39" value="" style="line;strokeWidth=1;fillColor=none;align=left;verticalAlign=middle;spacingTop=-1;spacingLeft=3;spacingRight=3;rotatable=0;labelPosition=right;points=[];portConstraint=eastwest;strokeColor=inherit;" parent="ay8TrYF9AFH5agloY99Q-37" vertex="1">
          <mxGeometry y="78" width="160" height="8" as="geometry" />
        </mxCell>
        <mxCell id="ay8TrYF9AFH5agloY99Q-40" value="+&amp;nbsp;" style="text;strokeColor=none;fillColor=none;align=left;verticalAlign=top;spacingLeft=4;spacingRight=4;overflow=hidden;rotatable=0;points=[[0,0.5],[1,0.5]];portConstraint=eastwest;whiteSpace=wrap;html=1;" parent="ay8TrYF9AFH5agloY99Q-37" vertex="1">
          <mxGeometry y="86" width="160" height="26" as="geometry" />
        </mxCell>
        <mxCell id="ay8TrYF9AFH5agloY99Q-41" value="План эвакуации" style="swimlane;fontStyle=1;align=center;verticalAlign=top;childLayout=stackLayout;horizontal=1;startSize=26;horizontalStack=0;resizeParent=1;resizeParentMax=0;resizeLast=0;collapsible=1;marginBottom=0;whiteSpace=wrap;html=1;" parent="1" vertex="1">
          <mxGeometry x="-3" y="689" width="160" height="138" as="geometry" />
        </mxCell>
        <mxCell id="ay8TrYF9AFH5agloY99Q-42" value="+ id: string" style="text;strokeColor=none;fillColor=none;align=left;verticalAlign=top;spacingLeft=4;spacingRight=4;overflow=hidden;rotatable=0;points=[[0,0.5],[1,0.5]];portConstraint=eastwest;whiteSpace=wrap;html=1;" parent="ay8TrYF9AFH5agloY99Q-41" vertex="1">
          <mxGeometry y="26" width="160" height="26" as="geometry" />
        </mxCell>
        <mxCell id="ay8TrYF9AFH5agloY99Q-65" value="+ picture: string" style="text;strokeColor=none;fillColor=none;align=left;verticalAlign=top;spacingLeft=4;spacingRight=4;overflow=hidden;rotatable=0;points=[[0,0.5],[1,0.5]];portConstraint=eastwest;whiteSpace=wrap;html=1;" parent="ay8TrYF9AFH5agloY99Q-41" vertex="1">
          <mxGeometry y="52" width="160" height="26" as="geometry" />
        </mxCell>
        <mxCell id="ay8TrYF9AFH5agloY99Q-66" value="+ date: string" style="text;strokeColor=none;fillColor=none;align=left;verticalAlign=top;spacingLeft=4;spacingRight=4;overflow=hidden;rotatable=0;points=[[0,0.5],[1,0.5]];portConstraint=eastwest;whiteSpace=wrap;html=1;" parent="ay8TrYF9AFH5agloY99Q-41" vertex="1">
          <mxGeometry y="78" width="160" height="26" as="geometry" />
        </mxCell>
        <mxCell id="ay8TrYF9AFH5agloY99Q-43" value="" style="line;strokeWidth=1;fillColor=none;align=left;verticalAlign=middle;spacingTop=-1;spacingLeft=3;spacingRight=3;rotatable=0;labelPosition=right;points=[];portConstraint=eastwest;strokeColor=inherit;" parent="ay8TrYF9AFH5agloY99Q-41" vertex="1">
          <mxGeometry y="104" width="160" height="8" as="geometry" />
        </mxCell>
        <mxCell id="ay8TrYF9AFH5agloY99Q-44" value="+ belongsTo(Здание): string" style="text;strokeColor=none;fillColor=none;align=left;verticalAlign=top;spacingLeft=4;spacingRight=4;overflow=hidden;rotatable=0;points=[[0,0.5],[1,0.5]];portConstraint=eastwest;whiteSpace=wrap;html=1;" parent="ay8TrYF9AFH5agloY99Q-41" vertex="1">
          <mxGeometry y="112" width="160" height="26" as="geometry" />
        </mxCell>
        <mxCell id="ay8TrYF9AFH5agloY99Q-67" value="Элемент карты" style="swimlane;fontStyle=1;align=center;verticalAlign=top;childLayout=stackLayout;horizontal=1;startSize=26;horizontalStack=0;resizeParent=1;resizeParentMax=0;resizeLast=0;collapsible=1;marginBottom=0;whiteSpace=wrap;html=1;" parent="1" vertex="1">
          <mxGeometry x="27" y="105" width="160" height="112" as="geometry" />
        </mxCell>
        <mxCell id="ay8TrYF9AFH5agloY99Q-68" value="+ id: string" style="text;strokeColor=none;fillColor=none;align=left;verticalAlign=top;spacingLeft=4;spacingRight=4;overflow=hidden;rotatable=0;points=[[0,0.5],[1,0.5]];portConstraint=eastwest;whiteSpace=wrap;html=1;" parent="ay8TrYF9AFH5agloY99Q-67" vertex="1">
          <mxGeometry y="26" width="160" height="26" as="geometry" />
        </mxCell>
        <mxCell id="ay8TrYF9AFH5agloY99Q-71" value="+ coord: string" style="text;strokeColor=none;fillColor=none;align=left;verticalAlign=top;spacingLeft=4;spacingRight=4;overflow=hidden;rotatable=0;points=[[0,0.5],[1,0.5]];portConstraint=eastwest;whiteSpace=wrap;html=1;" parent="ay8TrYF9AFH5agloY99Q-67" vertex="1">
          <mxGeometry y="52" width="160" height="26" as="geometry" />
        </mxCell>
        <mxCell id="ay8TrYF9AFH5agloY99Q-69" value="" style="line;strokeWidth=1;fillColor=none;align=left;verticalAlign=middle;spacingTop=-1;spacingLeft=3;spacingRight=3;rotatable=0;labelPosition=right;points=[];portConstraint=eastwest;strokeColor=inherit;" parent="ay8TrYF9AFH5agloY99Q-67" vertex="1">
          <mxGeometry y="78" width="160" height="8" as="geometry" />
        </mxCell>
        <mxCell id="ay8TrYF9AFH5agloY99Q-70" value="+ method(type): type" style="text;strokeColor=none;fillColor=none;align=left;verticalAlign=top;spacingLeft=4;spacingRight=4;overflow=hidden;rotatable=0;points=[[0,0.5],[1,0.5]];portConstraint=eastwest;whiteSpace=wrap;html=1;" parent="ay8TrYF9AFH5agloY99Q-67" vertex="1">
          <mxGeometry y="86" width="160" height="26" as="geometry" />
        </mxCell>
        <mxCell id="ay8TrYF9AFH5agloY99Q-75" value="Extends" style="endArrow=block;endSize=16;endFill=0;html=1;rounded=0;exitX=0.487;exitY=0.957;exitDx=0;exitDy=0;exitPerimeter=0;entryX=0.5;entryY=0;entryDx=0;entryDy=0;" parent="1" source="ay8TrYF9AFH5agloY99Q-70" target="ay8TrYF9AFH5agloY99Q-1" edge="1">
          <mxGeometry width="160" relative="1" as="geometry">
            <mxPoint x="-193" y="525" as="sourcePoint" />
            <mxPoint x="-33" y="525" as="targetPoint" />
          </mxGeometry>
        </mxCell>
        <mxCell id="ay8TrYF9AFH5agloY99Q-77" value="Extends" style="endArrow=block;endSize=16;endFill=0;html=1;rounded=0;exitX=0.48;exitY=0.962;exitDx=0;exitDy=0;exitPerimeter=0;entryX=0.5;entryY=0;entryDx=0;entryDy=0;" parent="1" source="ay8TrYF9AFH5agloY99Q-70" target="ay8TrYF9AFH5agloY99Q-37" edge="1">
          <mxGeometry width="160" relative="1" as="geometry">
            <mxPoint x="27" y="635" as="sourcePoint" />
            <mxPoint x="187" y="635" as="targetPoint" />
          </mxGeometry>
        </mxCell>
        <mxCell id="ay8TrYF9AFH5agloY99Q-78" value="Extends" style="endArrow=block;endSize=16;endFill=0;html=1;rounded=0;entryX=0.5;entryY=0;entryDx=0;entryDy=0;exitX=0.474;exitY=0.962;exitDx=0;exitDy=0;exitPerimeter=0;" parent="1" source="ay8TrYF9AFH5agloY99Q-70" target="ay8TrYF9AFH5agloY99Q-13" edge="1">
          <mxGeometry width="160" relative="1" as="geometry">
            <mxPoint x="107" y="225" as="sourcePoint" />
            <mxPoint x="87" y="375" as="targetPoint" />
          </mxGeometry>
        </mxCell>
        <mxCell id="ay8TrYF9AFH5agloY99Q-79" value="Extends" style="endArrow=block;endSize=16;endFill=0;html=1;rounded=0;entryX=0.5;entryY=0;entryDx=0;entryDy=0;exitX=0.476;exitY=1.002;exitDx=0;exitDy=0;exitPerimeter=0;" parent="1" source="ay8TrYF9AFH5agloY99Q-70" target="ay8TrYF9AFH5agloY99Q-17" edge="1">
          <mxGeometry width="160" relative="1" as="geometry">
            <mxPoint x="113" y="226" as="sourcePoint" />
            <mxPoint x="297" y="375" as="targetPoint" />
          </mxGeometry>
        </mxCell>
        <mxCell id="ay8TrYF9AFH5agloY99Q-83" value="" style="endArrow=none;html=1;edgeStyle=orthogonalEdgeStyle;rounded=0;exitX=0.5;exitY=1;exitDx=0;exitDy=0;entryX=0.5;entryY=0;entryDx=0;entryDy=0;" parent="1" source="ay8TrYF9AFH5agloY99Q-21" target="ay8TrYF9AFH5agloY99Q-25" edge="1">
          <mxGeometry relative="1" as="geometry">
            <mxPoint x="-283" y="585" as="sourcePoint" />
            <mxPoint x="-123" y="585" as="targetPoint" />
          </mxGeometry>
        </mxCell>
        <mxCell id="ay8TrYF9AFH5agloY99Q-84" value="1" style="edgeLabel;resizable=0;html=1;align=left;verticalAlign=bottom;" parent="ay8TrYF9AFH5agloY99Q-83" connectable="0" vertex="1">
          <mxGeometry x="-1" relative="1" as="geometry">
            <mxPoint y="22" as="offset" />
          </mxGeometry>
        </mxCell>
        <mxCell id="ay8TrYF9AFH5agloY99Q-85" value="0..*" style="edgeLabel;resizable=0;html=1;align=right;verticalAlign=bottom;" parent="ay8TrYF9AFH5agloY99Q-83" connectable="0" vertex="1">
          <mxGeometry x="1" relative="1" as="geometry">
            <mxPoint x="10" y="-4" as="offset" />
          </mxGeometry>
        </mxCell>
        <mxCell id="ay8TrYF9AFH5agloY99Q-86" value="" style="endArrow=none;html=1;edgeStyle=orthogonalEdgeStyle;rounded=0;exitX=0.5;exitY=1;exitDx=0;exitDy=0;entryX=0.5;entryY=0;entryDx=0;entryDy=0;" parent="1" source="ay8TrYF9AFH5agloY99Q-25" target="ay8TrYF9AFH5agloY99Q-29" edge="1">
          <mxGeometry relative="1" as="geometry">
            <mxPoint x="-253" y="815" as="sourcePoint" />
            <mxPoint x="-93" y="815" as="targetPoint" />
            <Array as="points">
              <mxPoint x="-343" y="705" />
              <mxPoint x="-343" y="705" />
            </Array>
          </mxGeometry>
        </mxCell>
        <mxCell id="ay8TrYF9AFH5agloY99Q-87" value="1" style="edgeLabel;resizable=0;html=1;align=left;verticalAlign=bottom;" parent="ay8TrYF9AFH5agloY99Q-86" connectable="0" vertex="1">
          <mxGeometry x="-1" relative="1" as="geometry">
            <mxPoint y="22" as="offset" />
          </mxGeometry>
        </mxCell>
        <mxCell id="ay8TrYF9AFH5agloY99Q-88" value="1" style="edgeLabel;resizable=0;html=1;align=right;verticalAlign=bottom;" parent="ay8TrYF9AFH5agloY99Q-86" connectable="0" vertex="1">
          <mxGeometry x="1" relative="1" as="geometry">
            <mxPoint x="10" as="offset" />
          </mxGeometry>
        </mxCell>
        <mxCell id="ay8TrYF9AFH5agloY99Q-89" value="" style="endArrow=none;html=1;edgeStyle=orthogonalEdgeStyle;rounded=0;exitX=1;exitY=0.5;exitDx=0;exitDy=0;entryX=1.003;entryY=0.098;entryDx=0;entryDy=0;entryPerimeter=0;" parent="1" source="ay8TrYF9AFH5agloY99Q-24" target="ay8TrYF9AFH5agloY99Q-29" edge="1">
          <mxGeometry relative="1" as="geometry">
            <mxPoint x="-373" y="695" as="sourcePoint" />
            <mxPoint x="-213" y="695" as="targetPoint" />
          </mxGeometry>
        </mxCell>
        <mxCell id="ay8TrYF9AFH5agloY99Q-90" value="1" style="edgeLabel;resizable=0;html=1;align=left;verticalAlign=bottom;" parent="ay8TrYF9AFH5agloY99Q-89" connectable="0" vertex="1">
          <mxGeometry x="-1" relative="1" as="geometry" />
        </mxCell>
        <mxCell id="ay8TrYF9AFH5agloY99Q-91" value="0..*" style="edgeLabel;resizable=0;html=1;align=right;verticalAlign=bottom;" parent="ay8TrYF9AFH5agloY99Q-89" connectable="0" vertex="1">
          <mxGeometry x="1" relative="1" as="geometry">
            <mxPoint x="20" y="-16" as="offset" />
          </mxGeometry>
        </mxCell>
        <mxCell id="ay8TrYF9AFH5agloY99Q-92" value="" style="endArrow=none;html=1;edgeStyle=orthogonalEdgeStyle;rounded=0;exitX=0.5;exitY=1.023;exitDx=0;exitDy=0;exitPerimeter=0;entryX=0.5;entryY=0;entryDx=0;entryDy=0;" parent="1" source="ay8TrYF9AFH5agloY99Q-4" target="ay8TrYF9AFH5agloY99Q-5" edge="1">
          <mxGeometry relative="1" as="geometry">
            <mxPoint x="-132.99999999999994" y="503.4680000000001" as="sourcePoint" />
            <mxPoint x="-129.8" y="525" as="targetPoint" />
          </mxGeometry>
        </mxCell>
        <mxCell id="ay8TrYF9AFH5agloY99Q-93" value="1" style="edgeLabel;resizable=0;html=1;align=left;verticalAlign=bottom;" parent="ay8TrYF9AFH5agloY99Q-92" connectable="0" vertex="1">
          <mxGeometry x="-1" relative="1" as="geometry">
            <mxPoint x="-10" y="11" as="offset" />
          </mxGeometry>
        </mxCell>
        <mxCell id="ay8TrYF9AFH5agloY99Q-94" value="1" style="edgeLabel;resizable=0;html=1;align=right;verticalAlign=bottom;" parent="ay8TrYF9AFH5agloY99Q-92" connectable="0" vertex="1">
          <mxGeometry x="1" relative="1" as="geometry">
            <mxPoint x="10" y="10" as="offset" />
          </mxGeometry>
        </mxCell>
        <mxCell id="ay8TrYF9AFH5agloY99Q-95" value="" style="endArrow=none;html=1;edgeStyle=orthogonalEdgeStyle;rounded=0;exitX=0.501;exitY=1.001;exitDx=0;exitDy=0;exitPerimeter=0;entryX=0.5;entryY=0;entryDx=0;entryDy=0;" parent="1" source="ay8TrYF9AFH5agloY99Q-8" target="ay8TrYF9AFH5agloY99Q-9" edge="1">
          <mxGeometry relative="1" as="geometry">
            <mxPoint x="-333" y="605" as="sourcePoint" />
            <mxPoint x="-173" y="605" as="targetPoint" />
            <Array as="points">
              <mxPoint x="-123" y="675" />
              <mxPoint x="-123" y="675" />
            </Array>
          </mxGeometry>
        </mxCell>
        <mxCell id="ay8TrYF9AFH5agloY99Q-96" value="1" style="edgeLabel;resizable=0;html=1;align=left;verticalAlign=bottom;" parent="ay8TrYF9AFH5agloY99Q-95" connectable="0" vertex="1">
          <mxGeometry x="-1" relative="1" as="geometry">
            <mxPoint y="20" as="offset" />
          </mxGeometry>
        </mxCell>
        <mxCell id="ay8TrYF9AFH5agloY99Q-97" value="1" style="edgeLabel;resizable=0;html=1;align=right;verticalAlign=bottom;" parent="ay8TrYF9AFH5agloY99Q-95" connectable="0" vertex="1">
          <mxGeometry x="1" relative="1" as="geometry" />
        </mxCell>
        <mxCell id="ay8TrYF9AFH5agloY99Q-98" value="" style="endArrow=none;html=1;edgeStyle=orthogonalEdgeStyle;rounded=0;exitX=0.75;exitY=0;exitDx=0;exitDy=0;entryX=0.5;entryY=0;entryDx=0;entryDy=0;" parent="1" source="ay8TrYF9AFH5agloY99Q-5" target="ay8TrYF9AFH5agloY99Q-33" edge="1">
          <mxGeometry relative="1" as="geometry">
            <mxPoint x="-103" y="545" as="sourcePoint" />
            <mxPoint x="57" y="545" as="targetPoint" />
          </mxGeometry>
        </mxCell>
        <mxCell id="ay8TrYF9AFH5agloY99Q-99" value="1..*" style="edgeLabel;resizable=0;html=1;align=left;verticalAlign=bottom;" parent="ay8TrYF9AFH5agloY99Q-98" connectable="0" vertex="1">
          <mxGeometry x="-1" relative="1" as="geometry" />
        </mxCell>
        <mxCell id="ay8TrYF9AFH5agloY99Q-100" value="1" style="edgeLabel;resizable=0;html=1;align=right;verticalAlign=bottom;" parent="ay8TrYF9AFH5agloY99Q-98" connectable="0" vertex="1">
          <mxGeometry x="1" relative="1" as="geometry" />
        </mxCell>
        <mxCell id="ay8TrYF9AFH5agloY99Q-101" value="" style="endArrow=none;html=1;edgeStyle=orthogonalEdgeStyle;rounded=0;exitX=0.995;exitY=0.086;exitDx=0;exitDy=0;exitPerimeter=0;entryX=0.25;entryY=0;entryDx=0;entryDy=0;" parent="1" source="ay8TrYF9AFH5agloY99Q-5" target="ay8TrYF9AFH5agloY99Q-41" edge="1">
          <mxGeometry relative="1" as="geometry">
            <mxPoint x="-123" y="655" as="sourcePoint" />
            <mxPoint x="107" y="675" as="targetPoint" />
            <Array as="points">
              <mxPoint x="-23" y="536" />
              <mxPoint x="-23" y="665" />
              <mxPoint x="37" y="665" />
            </Array>
          </mxGeometry>
        </mxCell>
        <mxCell id="ay8TrYF9AFH5agloY99Q-102" value="1" style="edgeLabel;resizable=0;html=1;align=left;verticalAlign=bottom;" parent="ay8TrYF9AFH5agloY99Q-101" connectable="0" vertex="1">
          <mxGeometry x="-1" relative="1" as="geometry" />
        </mxCell>
        <mxCell id="ay8TrYF9AFH5agloY99Q-103" value="1" style="edgeLabel;resizable=0;html=1;align=right;verticalAlign=bottom;" parent="ay8TrYF9AFH5agloY99Q-101" connectable="0" vertex="1">
          <mxGeometry x="1" relative="1" as="geometry">
            <mxPoint as="offset" />
          </mxGeometry>
        </mxCell>
        <mxCell id="ay8TrYF9AFH5agloY99Q-104" value="" style="endArrow=none;html=1;edgeStyle=orthogonalEdgeStyle;rounded=0;entryX=0.5;entryY=0;entryDx=0;entryDy=0;exitX=0.5;exitY=1.02;exitDx=0;exitDy=0;exitPerimeter=0;" parent="1" source="ay8TrYF9AFH5agloY99Q-36" target="ay8TrYF9AFH5agloY99Q-41" edge="1">
          <mxGeometry relative="1" as="geometry">
            <mxPoint x="-73" y="665" as="sourcePoint" />
            <mxPoint x="87" y="665" as="targetPoint" />
          </mxGeometry>
        </mxCell>
        <mxCell id="ay8TrYF9AFH5agloY99Q-105" value="1" style="edgeLabel;resizable=0;html=1;align=left;verticalAlign=bottom;" parent="ay8TrYF9AFH5agloY99Q-104" connectable="0" vertex="1">
          <mxGeometry x="-1" relative="1" as="geometry">
            <mxPoint y="17" as="offset" />
          </mxGeometry>
        </mxCell>
        <mxCell id="ay8TrYF9AFH5agloY99Q-106" value="1..*" style="edgeLabel;resizable=0;html=1;align=right;verticalAlign=bottom;" parent="ay8TrYF9AFH5agloY99Q-104" connectable="0" vertex="1">
          <mxGeometry x="1" relative="1" as="geometry">
            <mxPoint x="20" as="offset" />
          </mxGeometry>
        </mxCell>
      </root>
    </mxGraphModel>
  </diagram>
</mxfile>
